<svg width="1000" height="1000" viewBox="0 0 1000 1000" fill="none" xmlns="http://www.w3.org/2000/svg">
<path d="M413.912 442.348L605.306 254.269C622.741 237.132 650.893 237.131 668.33 254.267C668.331 254.268 668.332 254.268 668.333 254.269L713.248 298.398L713.251 298.4C730.855 315.704 730.855 343.884 713.251 361.188L713.249 361.19L522.281 548.844L535.821 562.15C535.937 562.264 536.111 562.362 536.398 562.362C536.686 562.362 536.859 562.264 536.976 562.15L859.355 245.353C859.356 245.353 859.356 245.353 859.356 245.352C876.793 228.216 904.946 228.216 922.382 245.353L967.278 289.476C984.905 306.779 984.908 334.971 967.282 352.276C967.28 352.278 967.279 352.279 967.277 352.281L567.911 744.732C567.911 744.732 567.911 744.732 567.911 744.732C550.474 761.868 522.322 761.868 504.885 744.732L413.91 655.335L313.863 753.646C296.427 770.784 268.273 770.785 250.837 753.647L413.912 442.348ZM413.912 442.348L394.694 423.462C394.693 423.462 394.693 423.461 394.693 423.461C377.257 406.325 349.104 406.325 331.668 423.462L286.752 467.591L286.75 467.593C269.144 484.896 269.144 513.079 286.75 530.381L286.751 530.382L305.539 548.845L282.919 571.074L282.914 571.078C282.812 571.179 282.647 571.278 282.356 571.278C282.065 571.278 281.9 571.179 281.798 571.078L281.793 571.073L140.645 432.379C140.645 432.378 140.644 432.378 140.643 432.377C123.207 415.24 95.0546 415.241 77.6186 432.378C77.6183 432.378 77.6179 432.379 77.6176 432.379L32.7223 476.501L413.912 442.348ZM32.7231 539.306L250.835 753.646L32.715 476.508C15.0956 493.811 15.0943 521.995 32.7154 539.298C32.718 539.301 32.7206 539.303 32.7231 539.306Z" fill="#00FF94" stroke="white" stroke-width="35"/>
</svg>
